<?xml version="1.0" encoding="utf-8"?>
<!-- Generator: Adobe Illustrator 15.0.0, SVG Export Plug-In . SVG Version: 6.00 Build 0)  -->
<!DOCTYPE svg PUBLIC "-//W3C//DTD SVG 1.1//EN" "http://www.w3.org/Graphics/SVG/1.1/DTD/svg11.dtd">
<svg version="1.1" xmlns="http://www.w3.org/2000/svg" xmlns:xlink="http://www.w3.org/1999/xlink" x="0px" y="0px" width="1200px"
	 height="1200px" viewBox="0 0 1200 1200" enable-background="new 0 0 1200 1200" xml:space="preserve">
<g id="Layer_1">
	<radialGradient id="SVGID_1_" cx="608.2969" cy="630.5674" r="520.2705" gradientUnits="userSpaceOnUse">
		<stop  offset="0" style="stop-color:#00AEEF"/>
		<stop  offset="1" style="stop-color:#1C75BC"/>
	</radialGradient>
	<circle fill="url(#SVGID_1_)" stroke="#1C75BC" stroke-miterlimit="10" cx="608.297" cy="630.567" r="520.27"/>
	<radialGradient id="SVGID_2_" cx="326.8125" cy="658.8721" r="286.2591" gradientUnits="userSpaceOnUse">
		<stop  offset="0" style="stop-color:#8DC63F"/>
		<stop  offset="1" style="stop-color:#009444"/>
	</radialGradient>
	<path fill="url(#SVGID_2_)" stroke="#1C75BC" stroke-miterlimit="10" d="M277.216,292.729c0,0,1.54,1.54,4.089,3.918
		c8.397,7.834,27.751,24.775,39.154,25.812c14.865,1.352,17.568,4.054,44.595,0s33.784,6.757,48.648,22.973
		s9.459,13.514,28.378,31.081s8.108,20.271,28.378,25.676s6.757,47.297,0,55.405s-48.649,39.189-54.054,52.703
		s-1.351,35.135-13.513,45.946s-18.918,21.622-33.784,27.027S346.136,594.081,343.433,613s0,6.756-31.081,17.567
		s-41.892,4.056-44.595,10.812s-1.351,63.514,9.459,79.729s29.729,27.026,58.108,35.135s31.082-9.458,48.649,28.379
		s21.622,81.081,21.622,85.135s-14.865,31.08-22.973,47.297s-13.465,17.567-8.76,32.433s29.03,16.216,8.76,31.081
		s-2.703,20.271-28.378,31.081s-27.026,31.082-35.135,16.217s-20.271-24.324-22.973-44.595s-4.054-10.81-4.054-41.892
		s14.865-2.703-10.811-51.352s-62.163-63.514-77.027-82.433s-48.648,6.758-21.622-41.892s32.432-67.567,43.243-82.433
		s8.109-62.163,5.406-90.541s-18.919-13.514-32.433-52.703s-13.514-32.433-13.514-62.162s-12.162-31.081-1.351-50
		s16.216-20.271,16.216-40.541s-1.351-41.892,0-51.351s8.108-16.216,20.27-29.73s25.675-20.271,33.784-21.622"/>
	<radialGradient id="SVGID_3_" cx="927.4541" cy="647.1182" r="292.055" gradientUnits="userSpaceOnUse">
		<stop  offset="0" style="stop-color:#8DC63F"/>
		<stop  offset="1" style="stop-color:#009444"/>
	</radialGradient>
	<path fill="url(#SVGID_3_)" stroke="#1C75BC" stroke-miterlimit="10" d="M955.595,284.622c0,0-31.082,32.432-33.784,36.486
		s-1.351,8.108-21.621,8.108s-28.379-13.513-33.784,0s0,20.271-10.811,28.378s-32.433,22.973-51.352,28.378
		s-37.837,8.107-41.892,13.513s-6.756,17.567-17.567,28.378s-21.623,0-10.812,21.622s31.081,48.649,39.189,54.054
		s8.108,1.351,6.757,17.567s-8.108,24.325-12.162,32.433s-5.405,14.865-6.757,24.324s-32.433,3.73,0,22.135
		s33.784,26.513,44.595,30.567s4.055-2.702,13.514,14.865s3.63,20.271,23.437,20.271s40.076-5.405,48.185,0
		s18.919,5.404,18.919,33.783s-49.999,56.758-58.107,64.865s-33.784,8.108-35.136,24.324s-5.405,21.622,1.352,37.838
		s9.459-28.378,12.162,27.027s-2.702,79.729-4.054,85.135s-13.514,12.163,0,27.027s8.108,1.351,13.514,14.864
		s-27.027,6.757,5.405,13.514s27.026,27.027,45.945,6.757s14.866-10.811,22.974-29.729s9.459-31.081,10.811-39.189
		s4.054-12.163,10.811-21.622s-22.973,4.055,20.271-20.27s37.838-13.513,43.243-24.324s-14.865,1.352,0-27.027
		s20.27-2.702,16.216-36.486s9.362-32.434,1.303-40.541s-12.114-8.108-13.465-18.919s-13.513-39.189-8.107-48.648
		s-9.459-14.865,12.162-14.865s35.135-2.703,40.54,0s6.757-2.702,13.514,10.812s12.163,33.784,16.217,44.595
		s6.756,25.675,6.756,25.675s-1.352-2.702,0,8.108s-12.162,16.217-10.811,27.027s10.906,22.973,10.906,22.973
		s22.878-51.351,22.878-64.864s-4.054,6.756,0-48.649s8.812-103.653,13.513-118.918s8.275-9.354,0-47.4
		s-31.081-70.167-60.811-116.113s-41.891-89.189-52.702-101.352S955.595,284.622,955.595,284.622z"/>
	<path fill="#009444" stroke="#1C75BC" stroke-miterlimit="10" d="M300.189,658.872c0,10.885-4.054,14.939,0,25.75
		s1.351,13.514,10.811,18.919s4.054,20.271,9.459,5.405s3.247-14.865,6.353-27.027s14.461-5.406,0-14.865s-13.11-8.182-19.867-8.182
		"/>
	<path fill="#009444" stroke="#1C75BC" stroke-miterlimit="10" d="M779.919,658.872c9.46,2.776,14.865,5.479,20.271,8.182
		s8.107,20.038,8.107,20.038s-2.702,5.638-8.107,5.638s-12.163,4.94-17.568-5.638s-10.811-20.238-14.864-20.813
		s-6.756-2.075-10.811-7.406S770.459,656.096,779.919,658.872z"/>
	<path fill="#009444" stroke="#1C75BC" stroke-miterlimit="10" d="M729.494,468.405c0,0,1.776,17.568,7.182,22.973
		s10.81,5.406,9.459,10.811S729.919,519.757,723.162,513s-5.405,0-6.757-13.514s5.405-10.811,0-17.567s-13.454-13.514-0.183-13.514
		S729.494,468.405,729.494,468.405z"/>
	<radialGradient id="SVGID_4_" cx="585.1963" cy="265.7563" r="184.3832" gradientUnits="userSpaceOnUse">
		<stop  offset="0" style="stop-color:#8DC63F"/>
		<stop  offset="1" style="stop-color:#009444"/>
	</radialGradient>
	<path fill="url(#SVGID_4_)" stroke="#1C75BC" stroke-miterlimit="10" d="M366.405,269.757
		c21.622,13.514,40.541,32.433,56.757,44.595s18.919,40.541,39.189,45.946s39.189,13.514,45.946,13.514s14.865,17.567,22.973-8.108
		s1.352-28.378,12.162-50s-6.757-27.027,21.622-22.973s47.296,13.514,63.513,14.865s122.973,18.027,144.595,17.122
		s24.325,6.311,27.027,0s-6.757,0.446,0-27.933s35.134-20.271,8.107-40.541s56.914-20.27-51.948-33.784
		s-151.461-20.27-163.27-27.027s1.705-16.217-32.079-24.325s-29.729-21.622-58.108-18.919s-43.244,18.919-55.406,24.325
		S411,192.729,400.189,202.189s-37.838,18.919-45.946,32.433s0,31.135,0,31.135h20.271"/>
	<path opacity="0.43" fill="#FFFFFF" d="M123.162,658.814c0,0,12.162,5.537,25.676,9.591s28.378,3.37,43.243,6.415
		s26.044,6.982,27.027,12.271s1.351,21.188,6.756,28.277s4.054,12.495,13.514,19.252s6.757,16.218,29.73,17.568s10,1.833,29.279,0
		s18.018,10.811,36.937,4.054s-5.082-6.942,35.297,6.664s64.704,14.958,79.568,13.606s11.951-26.202,30.976,0.412
		s13.619,32.021,24.43,44.183s-8.108,16.216,18.919,22.973s47.297-8.108,47.297,16.216s54.054,35.135,0,37.838
		s-60.811,6.757-75.675,8.108s-8.108,0-25.676,0s-55.406,36.486-79.73,36.486s-18.018,4.055-40.09-10.811
		s2.252-13.515-22.072-14.865s-2.167-0.571-34.191,9.174s-18.511,20.214-50.943,17.007s-28.379,2.197-39.189-8.613
		s-9.783-9.606-27.189-12.911s-17.406,18.316-29.568-3.305s-13.514-14.864-24.324-35.135s-8.108-14.866-16.216-29.73
		s-8.107-8.108-13.513-22.973s-13.514,4.055-5.406-22.973s8.004-32.434-3.43-47.298s-10.083-1.351-11.435-14.864
		s-5.405-31.081,0-39.189s12.699-10.359,14.865-19.151s17.567-21.652,21.622-28.277S123.162,658.814,123.162,658.814z"/>
	<path opacity="0.25" fill="#FFFFFF" d="M938.027,429.216c0,0-67.567,16.216-75.676,18.919s-8.107-2.703-35.135,0
		s-30.327,1.561-44.894,0.78s-11.706-0.404-25.975,7.328s-18.169,22.559-24.326,25.469s10.106,15.072-23.025,15.072
		s-56.105-22.973-75.024,0s-20.271,13.513-18.919,31.081s-2.702,50,14.865,56.757s17.568,13.189,51.352,15.378
		s7.259-14.027,48.224,10.297s40.965,95.946,40.965,95.946s-10.812,55.406,0,59.46s-8.946,11.167,29.73,8.107
		s47.298-24.324,63.514-6.757s20.27,22.343,27.026,32.793s27.503,36.126,36.725,32.072s14.626,18.919,32.194-17.567
		s9.459-19.33,25.676-48.648s9.459-41.892,29.729-56.757s22.974,16.217,45.946-18.919s56.756-55.404,67.567-74.324
		c10.812-18.919,13.514-9.461,18.919-41.893c5.405-32.432,14.865-40.54,6.757-66.216s-22.974-50-25.676-67.568
		s-37.338-22.81-49.074-30.324s-52.277-7.514-56.331-8.865s-14.864-2.703-41.892,0S938.027,429.216,938.027,429.216z"/>
	<path opacity="0.27" fill="#FFFFFF" d="M259.648,169.757c16.216,5.405,67.568,58.108,83.784,64.865s8.108,27.134,43.243,31.135
		s68.919,22.919,82.433,18.865s52.948-6.762,66.216,0.566s70.27,34.569,85.135,48.083s45.946,46.864,47.298,46.405
		s1.351,11.703-44.595,30.622c-45.946,18.919-32.432,24.324-74.324,25.675s-61.796-4.054-84.952,6.757s-24.507,10.811-40.724,25.676
		s31.082,56.045-41.892,23.293s-57.657-36.807-82.883-36.807s-57.658,0-57.658,0s-66.269,25.676-68.27,25.676
		s-2.001,9.459-15.514-12.162s-18.715-4.314-30.979-33.238s-17.67-18.531-16.318-35.89s-14.864,19.128,5.406-26.818
		s6.757-27.027,35.135-70.271s40.541-48.649,50-71.622S259.648,169.757,259.648,169.757z"/>
</g>
<g id="Layer_2">
	<g opacity="0.27">
		<g>
			<path d="M341.479,82.764c-5.192,1.748,6.204-1.383,0.758-0.239c0.997-0.209,2.004-0.369,3.01-0.529
				c3.395-0.539-2.741,0.238,0.676-0.079c1.01-0.094,2.023-0.139,3.037-0.185c3.339-0.15-2.219-0.08,1.127-0.023
				c2.383,0.04,4.759,0.26,7.123,0.543c6.768,0.813,16.054,3.874,23.185,7.303c17.432,8.381,32.471,21.46,44.995,36.05
				c22.205,25.867,42.37,65.669,32.24,100.519c-2.699,9.286-7.816,17.331-14.666,24.092c-3.338,3.295-7.14,5.966-11.141,8.394
				c1.449-0.879-2.173,1.115-1.907,0.978c-1.128,0.583-2.286,1.106-3.443,1.63c2.346-1.062-1.493,0.513-1.605,0.555
				c-1.576,0.538-1.595,0.561-0.056,0.07c-0.807,0.245-1.618,0.476-2.433,0.693c-4.016,1.106,2.798-0.489-1.277,0.325
				c-1.232,0.246-2.476,0.424-3.719,0.602c2.526-0.361-4.827,0.142-3.661,0.158c-5.037-0.068-9.813-1.016-14.584-2.605
				c-9.132-3.042-17.966-9.744-22.632-18.22c-3.931-7.141-4.297-15.305-0.216-22.401c0.824-1.433,2.052-2.604,3.239-3.733
				c0.54-0.513,2.317-1.54,2.72-1.74c-3.08,1.527,2.744-0.785-1.02,0.358c3.973-1.207-2.777,0.412,1.518-0.349
				c1.434-0.254,3.811-0.312,4.944-0.291c21.094,0.374,41.348,10.913,57.981,23.129c17.998,13.218,33.534,30.672,42.591,51.207
				c6.634,15.04,11.818,40.419-0.384,53.647c-0.292,0.316-2.175,1.889-0.313,0.426c-0.655,0.515-2.674,1.507,0.304-0.071
				c3.865-2.047,9.915-2.905,12.5-2.345c-1.61-0.349,1.255,0.777-0.188-0.012c-0.45-0.247-0.839-0.588-1.222-0.924
				c-0.832-0.729-1.025-1.347-1.529-2.813c-2.464-7.16,1.509-16.036,4.979-22.174c1.537-2.718,3.555-4.995,5.978-7.133
				c-1.929,1.702,4.478-2.604,0.793-0.575c0.741-0.408,3.294-1.479-0.291,0.024c3.572-1.497-2.267,0.574,0.149-0.098
				c2.839-0.79-3.468,0.655-0.545,0.129c2.838-0.511-3.056,0.264-0.153-0.005c0.821-0.076,1.645-0.102,2.469-0.129
				c-2.969,0.098-0.116,0.024,0.438,0.045c4.545,0.18,5.537,0.457,10.021,1.564c15.187,3.75,29.137,11.833,41.936,20.601
				c12.375,8.478,24.073,18.276,34.162,29.397c12.657,13.951,19.634,32.685,20.318,51.634c0.938,25.969-10.85,51.168-18.703,75.356
				c-1.273,3.922,5.548,3.747,7.63,3.618c5.275-0.327,14.591-2.01,18.053-6.636c3.141-4.197,6.643-8.184,10.862-11.326
				c2.287-1.704,2.941-2.041,5.132-3.136c3.596-1.798-2.252,0.812,1.469-0.602c1.564-0.543,1.548-0.544-0.05-0.004
				c1.601-0.402,1.57-0.426-0.09-0.071c1.185-0.259,2.388-0.432,3.587-0.605c-2.71,0.392,1.22-0.004,1.469-0.017
				c1.161-0.059,3.159,0.085,5.552,0.338c4.901,0.519,9.748,2.204,14.281,4.063c16.609,6.814,29.162,21.124,34.429,38.047
				c9.645,30.991,5.112,70.047-11.876,97.713c-1.81,2.947-3.896,5.66-6.186,8.25c-2.815,3.184-5.121,5.132-7.445,6.776
				c-0.715,0.505-1.457,0.971-2.198,1.436c2.424-1.52-0.044,0.005-0.502,0.244c-0.648,0.341-3.438,1.564-0.067,0.129
				c-0.808,0.344-1.636,0.638-2.463,0.932c3.95-1.403,1.048-0.355,0.153-0.118c-3.104,0.819,3.303-0.623,0.112-0.061
				c-3.115,0.55,2.893-0.236-0.3,0.057c-1.259,0.115-2.524,0.14-3.787,0.152c2.593,0.748,5.187,1.496,7.78,2.245
				c-3.343-8.228-0.259-16.311,4.258-23.429c2.415-3.806,5.677-7.123,8.956-10.184c1.496-1.397,3.071-2.629,4.727-3.836
				c0.968-0.706,1.972-1.361,2.975-2.015c1.185-0.708,1.348-0.827,0.49-0.356c0.673-0.379,1.353-0.745,2.04-1.098
				c0.349-0.183,3.79-1.74,0.988-0.554c0.627-0.265,4.14-1.462,0.513-0.319c0.748-0.236,4.179-0.923,0.336-0.167
				c3.258-0.64-2.733,0.153,0.473-0.041c-2.631,0.159,0.17,0.086,0.694,0.14c-1.642-0.168,1.302,0.326,1.321,0.331
				c2.064,0.478,4.062,1.206,6.009,2.03c6.168,2.61,11.863,8.402,15.71,13.919c9.965,14.292,13.904,32.505,15.859,49.525
				c1.882,16.378,1.813,33.384-1.184,49.627c-2.245,12.166-7.542,23.716-13.999,34.198c-3.632,5.896-8.052,11.255-13.123,15.969
				c-0.954,0.887-1.94,1.664-2.981,2.437c-0.376,0.278-3.783,2.42-2.57,1.747c-0.694,0.372-1.399,0.724-2.115,1.054
				c1.312-0.562,1.266-0.571-0.141-0.027c0.881-0.357,1.793-0.598,2.736-0.721c-3.616,0.772,2.479-0.076-1.233,0.141
				c1.955-0.114-1.802-0.199-1.815-0.202c-1.669-0.303-3.287-0.836-4.886-1.391c-3.333-1.157-6.33-3.17-9.013-5.42
				c-6.159-5.165-10.346-12.272-16.521-17.452c-13.077-10.967-31.653-12.62-46.616-19.885c-5.283-2.565-12.301-0.751-17.511,1.189
				c-0.92,0.343-12.686,5.964-7.903,8.285c11.848,5.753,24.855,8.373,36.755,13.92c5.219,2.434,9.918,5.645,13.931,9.767
				c4.308,4.425,7.861,9.486,12.451,13.65c20.061,18.198,53.023,7.658,71.105-7.784c14.912-12.734,25.911-33.329,29.888-52.407
				c3.366-16.153,3.611-33.162,2.229-49.549c-2.341-27.728-11.533-64.693-42.081-73.37c-19.548-5.553-42.45,4.036-57.546,16.292
				c-11.785,9.569-26.961,26.716-20.252,43.23c1.107,2.726,5.548,2.268,7.78,2.245c19.47-0.195,39.427-8.357,52.602-22.818
				c11.38-12.49,17.851-28.856,21.499-45.135c7.041-31.421,6.367-70.787-18.471-94.37c-30.782-29.225-85.513-23.93-110.845,9.925
				c8.562-1.006,17.122-2.012,25.683-3.018c8.408-25.894,19.949-51.899,18.946-79.675c-0.736-20.412-9.837-39.352-23.573-54.117
				c-11.374-12.226-24.748-22.767-38.792-31.747c-14.812-9.471-31.016-17.104-48.5-19.745c-18.042-2.725-40.352,2.436-52.965,16.258
				c-5.674,6.218-9.5,14.592-10.739,22.884c-0.832,5.573-0.359,12.969,5.562,15.668c10.013,4.564,23.567,0.068,32.242-5.606
				c7.191-4.704,11.248-12.654,12.927-20.861c4.271-20.872-3.475-42.072-14.847-59.309c-24.453-37.066-69.996-66.657-115.673-61.162
				c-19.571,2.354-47.163,13.758-43.768,37.889c2.961,21.043,27.553,31.864,46.117,33.662c25.167,2.437,51.886-7.303,71.192-23.125
				c14.951-12.253,22.692-29.919,23.317-48.979c1.233-37.578-22.421-74.932-48.694-99.906c-13.255-12.6-28.95-22.848-46.324-28.737
				c-19.728-6.687-40.742-5.321-60.281,1.257c-1.623,0.547-12.103,5.176-7.903,8.286C328.409,87.24,336.998,84.273,341.479,82.764
				L341.479,82.764z"/>
		</g>
	</g>
</g>
</svg>
